<?xml version="1.0" encoding="UTF-8" standalone="no"?>
<svg
   xmlns:dc="http://purl.org/dc/elements/1.1/"
   xmlns:cc="http://creativecommons.org/ns#"
   xmlns:rdf="http://www.w3.org/1999/02/22-rdf-syntax-ns#"
   xmlns:svg="http://www.w3.org/2000/svg"
   xmlns="http://www.w3.org/2000/svg"
   xmlns:sodipodi="http://sodipodi.sourceforge.net/DTD/sodipodi-0.dtd"
   xmlns:inkscape="http://www.inkscape.org/namespaces/inkscape"
   width="363.76669"
   height="363.76025"
   viewBox="0 0 16.49842 16.498128"
   version="1.1"
   id="svg51560"
   sodipodi:docname="Instagram_2012.svg"
   inkscape:version="0.92.4 (5da689c313, 2019-01-14)"
   inkscape:export-filename="C:\Users\tjdru\OneDrive\Pictures\Logos\Internet\instagramlogo2012.png"
   inkscape:export-xdpi="263.90543"
   inkscape:export-ydpi="263.90543">
  <metadata
     id="metadata51564">
    <rdf:RDF>
      <cc:Work
         rdf:about="">
        <dc:format>image/svg+xml</dc:format>
        <dc:type
           rdf:resource="http://purl.org/dc/dcmitype/StillImage" />
      </cc:Work>
    </rdf:RDF>
  </metadata>
  <sodipodi:namedview
     pagecolor="#ffffff"
     bordercolor="#666666"
     borderopacity="1"
     objecttolerance="10"
     gridtolerance="10"
     guidetolerance="10"
     inkscape:pageopacity="0"
     inkscape:pageshadow="2"
     inkscape:window-width="1366"
     inkscape:window-height="705"
     id="namedview51562"
     showgrid="false"
     inkscape:zoom="1"
     inkscape:cx="203.32489"
     inkscape:cy="172.40137"
     inkscape:window-x="-8"
     inkscape:window-y="-8"
     inkscape:window-maximized="1"
     inkscape:current-layer="layer12" />
  <defs
     id="defs51553">
    <path
       id="a"
       d="M 0,0 H 113.386 V 113.386 H 0 Z"
       inkscape:connector-curvature="0" />
  </defs>
  <g
     inkscape:groupmode="layer"
     id="layer12"
     inkscape:label="Layer 1"
     transform="translate(-48.34779,-48.346936)">
    <path
       style="clip-rule:evenodd;fill:#0b5589;fill-opacity:1;fill-rule:evenodd;stroke:none"
       d="m 100.136,47.884 h -9.854 c 0.718,2.787 1.142,5.699 1.142,8.71 0,19.238 -15.592,34.83 -34.827,34.83 -19.234,0 -34.827,-15.592 -34.827,-34.83 0,-3.011 0.426,-5.923 1.144,-8.71 h -9.855 v 47.893 c 0,2.401 1.95,4.35 4.358,4.35 h 78.361 c 2.404648,0.002 4.35579,-1.945352 4.358,-4.35 z m 0,-30.473 c -10e-4,-2.405591 -1.952409,-4.354657 -4.358,-4.353 H 82.72 c -2.404257,0 -4.353448,1.948743 -4.354,4.353 v 13.063 c 0,2.404486 1.949514,4.353552 4.354,4.353 h 13.058 c 2.405591,0.0017 4.3569,-1.947409 4.358,-4.353 z M 34.828,56.594 c 0,12.021 9.745,21.77 21.768,21.77 12.023,0 21.77,-9.749 21.77,-21.77 0,-12.023 -9.747,-21.767 -21.77,-21.767 -12.023,0 -21.768,9.744 -21.768,21.767 z m -21.77,56.598 C 5.847,113.192 0,107.343 0,100.126 V 13.058 C 0,5.846 5.847,0 13.058,0 h 87.078 c 7.212,0 13.058,5.846 13.058,13.058 v 87.068 c -0.001,7.217 -5.846,13.066 -13.058,13.066 z"
       clip-path="none"
       id="path51558"
       inkscape:connector-curvature="0"
       transform="matrix(0.14575348,0,0,0.14575348,48.34779,48.346936)"
       sodipodi:nodetypes="ccccccccccccccccccccccccccccccccccc" />
  </g>
</svg>
